<svg id="visual" viewBox="0 0 1900 35" width="1900" height="35" xmlns="http://www.w3.org/2000/svg" xmlns:xlink="http://www.w3.org/1999/xlink" version="1.1"><rect x="0" y="0" width="1900" height="35" fill="#0c3245"></rect><path d="M0 3L45.2 5C90.3 7 180.7 11 271.2 14.8C361.7 18.7 452.3 22.3 542.8 23.7C633.3 25 723.7 24 814.2 20.7C904.7 17.3 995.3 11.7 1085.8 9.8C1176.3 8 1266.7 10 1357.2 12.2C1447.7 14.3 1538.3 16.7 1628.8 19.7C1719.3 22.7 1809.7 26.3 1854.8 28.2L1900 30L1900 0L1854.8 0C1809.7 0 1719.3 0 1628.8 0C1538.3 0 1447.7 0 1357.2 0C1266.7 0 1176.3 0 1085.8 0C995.3 0 904.7 0 814.2 0C723.7 0 633.3 0 542.8 0C452.3 0 361.7 0 271.2 0C180.7 0 90.3 0 45.2 0L0 0Z" fill="#181f38" stroke-linecap="round" stroke-linejoin="miter"></path></svg>