<svg id="visual" viewBox="0 0 960 35" width="960" height="35" xmlns="http://www.w3.org/2000/svg" xmlns:xlink="http://www.w3.org/1999/xlink" version="1.1"><rect x="0" y="0" width="960" height="35" fill="#0c3245"></rect><path d="M0 5L32 5.8C64 6.7 128 8.3 192 11.7C256 15 320 20 384 20.5C448 21 512 17 576 13.2C640 9.3 704 5.7 768 8.2C832 10.7 896 19.3 928 23.7L960 28L960 0L928 0C896 0 832 0 768 0C704 0 640 0 576 0C512 0 448 0 384 0C320 0 256 0 192 0C128 0 64 0 32 0L0 0Z" fill="#181f38" stroke-linecap="round" stroke-linejoin="miter"></path></svg>