<svg id="visual" viewBox="0 0 1900 35" width="1900" height="35" xmlns="http://www.w3.org/2000/svg" xmlns:xlink="http://www.w3.org/1999/xlink" version="1.1"><rect x="0" y="0" width="1900" height="35" fill="#0c3245"></rect><path d="M0 4L35.2 8.8C70.3 13.7 140.7 23.3 211 27.3C281.3 31.3 351.7 29.7 422 29.5C492.3 29.3 562.7 30.7 633 27.3C703.3 24 773.7 16 844.2 11.3C914.7 6.7 985.3 5.3 1055.8 7.7C1126.3 10 1196.7 16 1267 20C1337.3 24 1407.7 26 1478 25.3C1548.3 24.7 1618.7 21.3 1689 16.7C1759.3 12 1829.7 6 1864.8 3L1900 0L1900 36L1864.8 36C1829.7 36 1759.3 36 1689 36C1618.7 36 1548.3 36 1478 36C1407.7 36 1337.3 36 1267 36C1196.7 36 1126.3 36 1055.8 36C985.3 36 914.7 36 844.2 36C773.7 36 703.3 36 633 36C562.7 36 492.3 36 422 36C351.7 36 281.3 36 211 36C140.7 36 70.3 36 35.2 36L0 36Z" fill="#ffffff" stroke-linecap="round" stroke-linejoin="miter"></path></svg>