<svg id="visual" viewBox="0 0 1901 35" width="1901" height="35" xmlns="http://www.w3.org/2000/svg" xmlns:xlink="http://www.w3.org/1999/xlink" version="1.1"><rect x="0" y="0" width="1901" height="35" fill="#ebf5f3"></rect><path d="M0 17L45.3 15.3C90.7 13.7 181.3 10.3 271.8 11.3C362.3 12.3 452.7 17.7 543.2 20.2C633.7 22.7 724.3 22.3 814.8 20.3C905.3 18.3 995.7 14.7 1086.2 13.5C1176.7 12.3 1267.3 13.7 1357.8 16.8C1448.3 20 1538.7 25 1629.2 25.2C1719.7 25.3 1810.3 20.7 1855.7 18.3L1901 16L1901 0L1855.7 0C1810.3 0 1719.7 0 1629.2 0C1538.7 0 1448.3 0 1357.8 0C1267.3 0 1176.7 0 1086.2 0C995.7 0 905.3 0 814.8 0C724.3 0 633.7 0 543.2 0C452.7 0 362.3 0 271.8 0C181.3 0 90.7 0 45.3 0L0 0Z" fill="#ffffff" stroke-linecap="round" stroke-linejoin="miter"></path></svg>