<svg id="visual" viewBox="0 0 1901 35" width="1901" height="35" xmlns="http://www.w3.org/2000/svg" xmlns:xlink="http://www.w3.org/1999/xlink" version="1.1"><rect x="0" y="0" width="1901" height="35" fill="#0c3245"></rect><path d="M0 4L35.2 7.2C70.3 10.3 140.7 16.7 211 16C281.3 15.3 351.7 7.7 422.2 8.8C492.7 10 563.3 20 633.8 24.5C704.3 29 774.7 28 845 23.7C915.3 19.3 985.7 11.7 1056 7.5C1126.3 3.3 1196.7 2.7 1267.2 7.3C1337.7 12 1408.3 22 1478.8 26.3C1549.3 30.7 1619.7 29.3 1690 28.8C1760.3 28.3 1830.7 28.7 1865.8 28.8L1901 29L1901 0L1865.8 0C1830.7 0 1760.3 0 1690 0C1619.7 0 1549.3 0 1478.8 0C1408.3 0 1337.7 0 1267.2 0C1196.7 0 1126.3 0 1056 0C985.7 0 915.3 0 845 0C774.7 0 704.3 0 633.8 0C563.3 0 492.7 0 422.2 0C351.7 0 281.3 0 211 0C140.7 0 70.3 0 35.2 0L0 0Z" fill="#ebf5f3" stroke-linecap="round" stroke-linejoin="miter"></path></svg>